# xmcd
# 
# Track frame offsets:
#     150
#     10300
#     19714
#     30064
#     39900
#     49187
#     60551
#     78335
#     93043
#     107893
#     119910
#     136559
#     157144
#     172796
# 
# Disc length: 2512
# 
# Revision: 1
# Processed by: cddbd v1.5.2PL0 Copyright (c) Steve Scherf et al.
# Submitted via: BonkEnc v1.0.5
# 
DISCID=9e09ce0e
DTITLE=Various Artist - Redneck Christmas
DYEAR=2007
DGENRE=Christmas
TTITLE0=Buck Owens - Santa Looked Alot Like Daddy
TTITLE1=Homer and Jethro - All I Want For Christmas is My Upper Plate - Homer and Jethro
TTITLE2=George Jones - A New Baby For Christmas
TTITLE3=Red Simpson - Truckin' Trees For Christmas
TTITLE4=The Louvin Brothers - Santa's Big Parade
TTITLE5=John Anderson - Christmas Time
TTITLE6=The Tractors - Santa Claus Is Comin' (In A Boogie Woogie Choo Choo Train)
TTITLE7=Charlie Daniels - Christmas Time Down South
TTITLE8=Joe Diffie - Leroy The Red Neck Reindeer
TTITLE9=Asleep At The Wheel - Xmas In Jail
TTITLE10=Dale Watson - You Can Call Me Nick
TTITLE11=Travis Tritt - Christmas Just Ain't Christmas Without You
TTITLE12=Elmo and Patsy - Grandma Got Run Over By A Reindeer
TTITLE13=Dwight Yoakam - Santa Can't Stay
EXTD=
EXTT0=
EXTT1=
EXTT2=
EXTT3=
EXTT4=
EXTT5=
EXTT6=
EXTT7=
EXTT8=
EXTT9=
EXTT10=
EXTT11=
EXTT12=
EXTT13=
PLAYORDER=
